<?xml version="1.0" standalone="no"?>
<!DOCTYPE svg PUBLIC "-//W3C//DTD SVG 20010904//EN"
 "http://www.w3.org/TR/2001/REC-SVG-20010904/DTD/svg10.dtd">
<svg version="1.0" xmlns="http://www.w3.org/2000/svg"
 width="1200.000000pt" height="1200.000000pt" viewBox="0 0 1200.000000 1200.000000"
 preserveAspectRatio="xMidYMid meet">
<metadata>
Created by potrace 1.14, written by Peter Selinger 2001-2017
</metadata>
<g transform="translate(0.000000,1200.000000) scale(0.100000,-0.100000)"
fill="#000000" stroke="none">
<path d="M5760 10860 l0 -180 60 0 60 0 0 -60 0 -60 60 0 60 0 0 -60 0 -60
-60 0 -60 0 0 -60 0 -60 60 0 60 0 0 -60 0 -60 60 0 60 0 0 -60 0 -60 -60 0
-60 0 0 -180 0 -180 60 0 60 0 0 -120 0 -120 60 0 60 0 0 -180 0 -180 -60 0
-60 0 0 -180 0 -180 -180 0 -180 0 0 120 0 120 -60 0 -60 0 0 180 0 180 60 0
60 0 0 60 0 60 -60 0 -60 0 0 240 0 240 -180 0 -180 0 0 60 0 60 -60 0 -60 0
0 60 0 60 -120 0 -120 0 0 60 0 60 -60 0 -60 0 0 120 0 120 -120 0 -120 0 0
-60 0 -60 -60 0 -60 0 0 -60 0 -60 -60 0 -60 0 0 -120 0 -120 -60 0 -60 0 0
-60 0 -60 60 0 60 0 0 -120 0 -120 60 0 60 0 0 -300 0 -300 -120 0 -120 0 0
-60 0 -60 -60 0 -60 0 0 -60 0 -60 -60 0 -60 0 0 -60 0 -60 -240 0 -240 0 0
-120 0 -120 60 0 60 0 0 60 0 60 60 0 60 0 0 -120 0 -120 -60 0 -60 0 0 -60 0
-60 -240 0 -240 0 0 -60 0 -60 -120 0 -120 0 0 -60 0 -60 120 0 120 0 0 60 0
60 60 0 60 0 0 -60 0 -60 60 0 60 0 0 60 0 60 120 0 120 0 0 60 0 60 120 0
120 0 0 60 0 60 60 0 60 0 0 60 0 60 60 0 60 0 0 120 0 120 60 0 60 0 0 60 0
60 60 0 60 0 0 60 0 60 60 0 60 0 0 60 0 60 60 0 60 0 0 -240 0 -240 -60 0
-60 0 0 -780 0 -780 60 0 60 0 0 -180 0 -180 60 0 60 0 0 -60 0 -60 240 0 240
0 0 60 0 60 120 0 120 0 0 60 0 60 120 0 120 0 0 60 0 60 120 0 120 0 0 60 0
60 60 0 60 0 0 60 0 60 60 0 60 0 0 -2340 0 -2340 60 0 60 0 0 -60 0 -60 60 0
60 0 0 -60 0 -60 60 0 60 0 0 -60 0 -60 60 0 60 0 0 240 0 240 -60 0 -60 0 0
2280 0 2280 540 0 540 0 0 120 0 120 120 0 120 0 0 600 0 600 60 0 60 0 0 60
0 60 -60 0 -60 0 0 180 0 180 60 0 60 0 0 -120 0 -120 60 0 60 0 0 -240 0
-240 60 0 60 0 0 120 0 120 120 0 120 0 0 -60 0 -60 120 0 120 0 0 -60 0 -60
60 0 60 0 0 -180 0 -180 60 0 60 0 0 180 0 180 -60 0 -60 0 0 120 0 120 -60 0
-60 0 0 60 0 60 -180 0 -180 0 0 60 0 60 -60 0 -60 0 0 120 0 120 -60 0 -60 0
0 60 0 60 -180 0 -180 0 0 -60 0 -60 -60 0 -60 0 0 -60 0 -60 -60 0 -60 0 0
240 0 240 -60 0 -60 0 0 -60 0 -60 -60 0 -60 0 0 -60 0 -60 -60 0 -60 0 0 -60
0 -60 -60 0 -60 0 0 -120 0 -120 -60 0 -60 0 0 180 0 180 -60 0 -60 0 0 60 0
60 60 0 60 0 0 60 0 60 60 0 60 0 0 60 0 60 120 0 120 0 0 60 0 60 -120 0
-120 0 0 60 0 60 300 0 300 0 0 300 0 300 120 0 120 0 0 -60 0 -60 60 0 60 0
0 60 0 60 -60 0 -60 0 0 60 0 60 -180 0 -180 0 0 -240 0 -240 -60 0 -60 0 0
-60 0 -60 -60 0 -60 0 0 60 0 60 -120 0 -120 0 0 -60 0 -60 -120 0 -120 0 0
-120 0 -120 -60 0 -60 0 0 -180 0 -180 -60 0 -60 0 0 -120 0 -120 -60 0 -60 0
0 660 0 660 -60 0 -60 0 0 180 0 180 -60 0 -60 0 0 120 0 120 -180 0 -180 0 0
-180z m240 0 l0 -60 60 0 60 0 0 -60 0 -60 -60 0 -60 0 0 60 0 60 -60 0 -60 0
0 60 0 60 60 0 60 0 0 -60z m-1440 -600 l0 -60 -60 0 -60 0 0 60 0 60 60 0 60
0 0 -60z m1680 0 l0 -60 -60 0 -60 0 0 60 0 60 60 0 60 0 0 -60z m-1440 -240
l0 -60 -120 0 -120 0 0 60 0 60 120 0 120 0 0 -60z m240 -240 l0 -60 60 0 60
0 0 -60 0 -60 60 0 60 0 0 -120 0 -120 -120 0 -120 0 0 180 0 180 -60 0 -60 0
0 -60 0 -60 -60 0 -60 0 0 -60 0 -60 -60 0 -60 0 0 -120 0 -120 -60 0 -60 0 0
240 0 240 60 0 60 0 0 60 0 60 180 0 180 0 0 -60z m480 0 l0 -60 -60 0 -60 0
0 60 0 60 60 0 60 0 0 -60z m1440 -120 l0 -60 -60 0 -60 0 0 -60 0 -60 -60 0
-60 0 0 60 0 60 60 0 60 0 0 60 0 60 60 0 60 0 0 -60z m-1440 -120 l0 -60 -60
0 -60 0 0 60 0 60 60 0 60 0 0 -60z m840 -600 l0 -180 -60 0 -60 0 0 180 0
180 60 0 60 0 0 -180z m1320 -60 l0 -120 60 0 60 0 0 -60 0 -60 -60 0 -60 0 0
60 0 60 -60 0 -60 0 0 120 0 120 60 0 60 0 0 -120z"/>
</g>
</svg>
